<svg width="100" height="100" viewBox="19 18 66 66" fill="none" xmlns="http://www.w3.org/2000/svg">
  <path d="M46 25 C 42 21, 55 20, 58 24 C 62 28, 50 31, 46 29 C 42 27, 44 26, 46 25" stroke="#43A047" stroke-width="3" stroke-linecap="round" stroke-linejoin="round" />
  <path d="M38 42 C 32 35, 65 34, 70 40 C 74 46, 60 52, 45 53 C 35 54, 32 48, 38 42" stroke="#43A047" stroke-width="3" stroke-linecap="round" stroke-linejoin="round" />
  <path d="M28 65 C 20 55, 75 54, 82 62 C 88 72, 70 80, 45 82 C 25 84, 22 75, 28 65" stroke="#43A047" stroke-width="3" stroke-linecap="round" stroke-linejoin="round" />
</svg>
